{"title":"War 2007 BRRip H264 AAC-MS","uid":5610433,"size":1640757814,"categoryP":"video","categoryS":"hd___movies","magnet":"?xt=urn:btih:f977516454a573164b2172a8bd6501163d63a7f9&amp;dn=War+2007+BRRip+H264+AAC-MS&amp;tr=udp%3A%2F%2Ftracker.openbittorrent.com%3A80&amp;tr=udp%3A%2F%2Fopen.demonii.com%3A1337&amp;tr=udp%3A%2F%2Ftracker.coppersurfer.tk%3A6969&amp;tr=udp%3A%2F%2Fexodus.desync.com%3A6969","seeders":0,"leechers":0,"uploader":"rev-x","files":4,"time":1275837561,"description":"War 2007 BRRip H264 AAC-MS.mp4\nFormat : MPEG-4\nFormat profile : Base Media / Version 2\nCodec ID : mp42\nFile size : 1.53 GiB\nDuration : 1h 43mn\nOverall bit rate : 2 124 Kbps\n\nVideo #1\nFormat : AVC\nFormat/Info : Advanced Video Codec\nFormat profile : &lt;a class=&quot;__cf_email__&quot; href=&quot;/cdn-cgi/l/email-protection&quot; data-cfemail=&quot;155d7c727d5559213b24&quot;&gt;[email&amp;#160;protected]&lt;/a&gt;&lt;script cf-hash='f9e31' type=&quot;text/javascript&quot;&gt;\n/* &lt;![CDATA[ */!function(){try{var t=&quot;currentScript&quot;in document?document.currentScript:function(){for(var t=document.getElementsByTagName(&quot;script&quot;),e=t.length;e--;)if(t[e].getAttribute(&quot;cf-hash&quot;))return t[e]}();if(t&amp;&amp;t.previousSibling){var e,r,n,i,c=t.previousSibling,a=c.getAttribute(&quot;data-cfemail&quot;);if(a){for(e=&quot;&quot;,r=parseInt(a.substr(0,2),16),n=2;a.length-n;n+=2)i=parseInt(a.substr(n,2),16)^r,e+=String.fromCharCode(i);e=document.createTextNode(e),c.parentNode.replaceChild(e,c)}}}catch(u){}}();/* ]]&gt; */&lt;/script&gt;\nFormat settings, CABAC : Yes\nFormat settings, ReFrames : 3 frames\nCodec ID : avc1\nCodec ID/Info : Advanced Video Coding\nDuration : 1h 43mn\nBit rate mode : Variable\nBit rate : 1 800 Kbps\nWidth : 1 280 pixels\nHeight : 544 pixels\nDisplay aspect ratio : 2.35\nFrame rate mode : Variable\nFrame rate : 23.976 fps\nMinimum frame rate : 23.964 fps\nMaximum frame rate : 23.988 fps\nResolution : 24 bits\nColorimetry : 4:2:0\nScan type : Progressive\nBits/(Pixel*Frame) : 0.108\nStream size : 1.29 GiB (85%)\nWriting library : x264 core 65\n\nAudio #2\nFormat : AAC\nFormat/Info : Advanced Audio Codec\nFormat version : Version 4\nFormat profile : LC\nFormat settings, SBR : No\nCodec ID : 40\nDuration : 1h 43mn\nBit rate mode : Variable\nBit rate : 320 Kbps\nMaximum bit rate : 452 Kbps\nChannel(s) : 6 channels\nChannel positions : Front: L C R, Rear: L R, LFE\nSampling rate : 48.0 KHz\nResolution : 16 bits\nStream size : 236 MiB (15%)","torrent":{"xt":"urn:btih:f977516454a573164b2172a8bd6501163d63a7f9","amp;dn":"War+2007+BRRip+H264+AAC-MS","amp;tr":["udp%3A%2F%2Ftracker.openbittorrent.com%3A80","udp%3A%2F%2Fopen.demonii.com%3A1337","udp%3A%2F%2Ftracker.coppersurfer.tk%3A6969","udp%3A%2F%2Fexodus.desync.com%3A6969"],"infoHash":"f977516454a573164b2172a8bd6501163d63a7f9","infoHashBuffer":{"type":"Buffer","data":[249,119,81,100,84,165,115,22,75,33,114,168,189,101,1,22,61,99,167,249]},"announce":[],"urlList":[]}}